<?xml version="1.0" encoding="utf-8"?>
<!DOCTYPE svg PUBLIC "-//W3C//DTD SVG 1.1//EN" "http://www.w3.org/Graphics/SVG/1.1/DTD/svg11.dtd">
<svg version="1.1" xmlns="http://www.w3.org/2000/svg" width="148" height="58" viewBox="0 0 148 58" enable-background="new 0 0 148 58">
 <g id="UK__x26__Ireland">
  <path fill-rule="evenodd" fill="#feaa26" d="M136.699,3.016c1.789,0,3.164,0.738,4.064,2.224
		c1.059,1.699,1.59,3.555,1.59,5.564c0,2.617-0.658,4.833-1.98,6.666c-0.555,0.791-1.299,1.701-1.844,2.357
		c-0.332,0.402-0.592,1.205-0.619,1.885c-0.037,2.704,1.73,22.622,1.746,22.674c0.074,0.393,0.014,1.02-0.088,1.373
		c-0.355,1.258-1.523,2.166-2.869,2.166v-0.002c-1.344,0-2.512-0.908-2.867-2.164c-0.104-0.355-0.162-0.982-0.088-1.375
		c0.014-0.053,1.783-19.968,1.746-22.673c-0.029-0.68-0.287-1.482-0.621-1.884c-0.543-0.657-1.289-1.568-1.842-2.359
		c-1.324-1.832-1.98-4.049-1.98-6.664c0-2.011,0.531-3.866,1.59-5.564C133.537,3.753,134.91,3.015,136.699,3.016L136.699,3.016z
		 M67.187,10.823c0,0.298,0.242,0.528,0.528,0.528c0.297,0,0.539-0.23,0.539-0.528V1.582c0-0.297-0.242-0.528-0.539-0.528
		c-0.286,0-0.528,0.231-0.528,0.528V10.823z"/>
  <path fill="#ff6600" d="M76.02,44.838c0,0.832-0.803,1.502-1.285,1.766c-1.108,0.619-3.122,1.404-4.67,1.258
		c-1.826-0.188-3.062-0.807-4.466-2.453c-1.403-1.65-2.267-5.34-2.267-9.893v-0.012v-0.008c0-4.545,0.863-8.303,2.267-9.953
		c1.403-1.648,2.64-2.267,4.466-2.443c1.549-0.157,3.562,0.628,4.67,1.247c0.482,0.274,1.285,0.94,1.285,1.766
		c0,1.031-0.832,1.863-1.854,1.863c-0.303,0-0.677-0.088-0.883-0.225c-2.238-1.481-3.975-1.236-5.104,0.697
		c-0.775,1.325-1.157,3.995-1.157,7.055c0,3.062,0.382,5.674,1.157,6.998c1.129,1.934,2.865,2.189,5.104,0.697
		c0.206-0.127,0.58-0.227,0.883-0.227C75.188,42.973,76.02,43.809,76.02,44.838z M37.159,47.91c1.021,0,1.864-0.846,1.864-1.887
		l0.01-14.121c0-1.273,0.432-2.444,1.285-3.483c0.727-0.893,2.042-1.619,3.799-1.619c0.216,0,0.451,0,0.755,0.029
		c0.138,0.029,0.265,0.037,0.374,0.037l0.107-0.008h0.02c0.991-0.059,1.766-0.873,1.766-1.865c0-1.01-0.774-1.885-1.775-1.913
		c-2.57-0.089-5.073,1.177-6.34,2.905v-1.042c0-1.029-0.844-1.863-1.874-1.863s-1.864,0.834-1.864,1.863v21.08
		C35.285,47.064,36.119,47.91,37.159,47.91z M82.674,17.104c0-1.157-0.932-2.091-2.08-2.091c-1.139,0-2.08,0.934-2.08,2.091
		c0,1.148,0.941,2.081,2.08,2.081C81.742,19.185,82.674,18.252,82.674,17.104z M11.497,35.564c0,5.033-0.668,9.115-3.376,9.115
		c-2.601,0-3.386-4.082-3.386-9.115c0-5.035,0.923-9.118,3.386-9.118C11.153,26.447,11.497,30.529,11.497,35.564z M15.294,45.996
		V24.974c0-1.04-0.835-1.894-1.885-1.894c-1.04,0-1.894,0.854-1.894,1.894v0.883c-1.129-1.893-3.013-2.816-4.672-2.816
		c-0.343,0-0.696,0.029-1.089,0.079c-0.902,0.138-2.336,1.147-3.494,3.13c-1.1,1.885-1.658,4.975-1.658,9.178
		c0,4.326,0.549,7.318,1.629,9.203c1.148,1.984,2.836,3.299,4.396,3.287c2.09-0.008,3.74-0.805,4.897-2.551l-0.01,0.639
		c0,0.51,0.196,0.99,0.56,1.344c0.353,0.365,0.834,0.561,1.334,0.561C14.459,47.91,15.294,47.064,15.294,45.996z M23.468,9.244
		c0-1.139-0.912-2.062-2.051-2.062c-1.128,0-2.051,0.923-2.051,2.062v36.604c0,1.139,0.923,2.062,2.051,2.062
		c1.139,0,2.051-0.924,2.051-2.062V9.244z M31.457,9.244c0-1.139-0.922-2.062-2.051-2.062c-1.139,0-2.051,0.923-2.051,2.062v36.604
		c0,1.139,0.912,2.062,2.051,2.062c1.129,0,2.051-0.924,2.051-2.062V9.244z M82.635,25.132c0-1.14-0.912-2.052-2.051-2.052
		c-1.129,0-2.051,0.912-2.051,2.052v20.715c0,1.139,0.922,2.062,2.051,2.062c1.139,0,2.051-0.924,2.051-2.062V25.132z
		 M97.041,35.564c0-5.035-0.932-9.118-3.387-9.118c-3.031,0-3.385,4.083-3.385,9.118c0,5.033,0.678,9.115,3.385,9.115
		C96.256,44.68,97.041,40.598,97.041,35.564z M101.172,35.428c0,4.326-0.551,7.318-1.639,9.203
		c-1.139,1.984-2.826,3.299-4.385,3.287c-2.092-0.008-3.738-0.805-4.898-2.551c0,0.334,0.01,9.715,0,9.734
		c-0.02,1.021-0.863,1.846-1.885,1.846c-1.041,0-1.883-0.844-1.883-1.895V24.974c0-1.04,0.832-1.894,1.883-1.894
		c1.043,0,1.895,0.854,1.895,1.894v0.883c1.129-1.893,3.012-2.816,4.672-2.816c0.344,0,0.697,0.029,1.09,0.079
		c0.902,0.138,2.334,1.147,3.492,3.13C100.613,28.134,101.172,31.225,101.172,35.428z M50.839,33.631
		c0-3.545,0.656-7.076,3.141-7.076c2.482,0,3.502,3.531,3.502,7.066L50.839,33.631z M61.31,35.594
		c0-5.811-1.002-12.513-6.938-12.513c-4.014,0-5.407,2.522-6.035,4.347c-0.677,1.982-1.267,4.692-1.267,7.92
		c0,2.875,0.354,7.064,1.807,9.332c1.472,2.287,3.258,3.238,5.495,3.238c3.602,0,5.829-1.98,6.458-5.221
		c0.529-2.729-3.229-2.883-3.543-0.842c-0.197,1.324-1.198,2.756-2.915,2.756c-1.718,0-2.532-1.688-2.817-2.541
		c-0.48-1.451-0.805-3.898-0.725-5.713h9.715C60.957,36.357,61.31,36.006,61.31,35.594z M107.168,33.631
		c0-3.545,0.658-7.076,3.141-7.076c2.484,0,3.504,3.531,3.504,7.066L107.168,33.631z M117.648,35.594
		c0-5.811-1.01-12.513-6.947-12.513c-4.004,0-5.406,2.522-6.025,4.347c-0.678,1.982-1.275,4.692-1.275,7.92
		c0,2.875,0.354,7.064,1.805,9.332c1.473,2.287,3.268,3.238,5.496,3.238c3.602,0,5.828-1.98,6.457-5.221
		c0.529-2.729-3.23-2.883-3.543-0.842c-0.197,1.324-1.197,2.756-2.914,2.756s-2.531-1.688-2.807-2.541
		c-0.48-1.451-0.814-3.898-0.736-5.713h9.715C117.287,36.357,117.648,36.006,117.648,35.594z M127.688,34.543
		c-1.461-1.246-3.08-2.277-4.082-3.443c-1.365-1.58-0.303-4.153,1.238-4.407c0.861-0.138,1.912,0.068,2.775,0.479
		c0.275,0.158,0.59,0.268,0.932,0.268c1.021,0,1.836-0.836,1.836-1.847c0-0.774-0.461-1.423-1.127-1.708l-0.021-0.009
		c-2.648-1.052-5.811-1.442-8.174,1.068c-2.375,2.513-2.129,6.666,0.266,8.99c1.373,1.346,4.219,3.24,5.16,4.691
		c2.336,3.602-0.793,6.938-4.404,5.016h-0.012c-0.283-0.195-0.639-0.305-1.01-0.305c-1.012,0-1.836,0.824-1.836,1.846
		c0,0.156,0.029,0.312,0.057,0.461c0.08,0.373,0.279,0.727,0.631,0.973c0.01,0.01,0.188,0.125,0.266,0.174
		c2.268,1.436,5.613,1.67,7.998-0.225C131.889,43.621,131.73,37.988,127.688,34.543z"/>
  <path fill="#8e8e98" d="M142.857,44.293h-0.723c-0.096,0-0.184-0.086-0.184-0.182s0.088-0.182,0.184-0.182h1.814
		c0.105,0,0.182,0.086,0.182,0.182s-0.076,0.182-0.182,0.182h-0.713v2.164c0,0.104-0.086,0.189-0.199,0.189
		c-0.104,0-0.18-0.086-0.18-0.189V44.293z M144.688,44.111c0-0.113,0.078-0.191,0.191-0.191h0.053c0.078,0,0.129,0.035,0.172,0.096
		l0.939,1.459l0.955-1.459c0.043-0.061,0.096-0.096,0.164-0.096h0.053c0.096,0,0.182,0.088,0.182,0.191v2.346
		c0,0.104-0.086,0.189-0.191,0.189c-0.104,0-0.182-0.086-0.182-0.189V44.65l-0.809,1.205c-0.043,0.072-0.094,0.115-0.172,0.115
		s-0.131-0.043-0.174-0.115l-0.799-1.205v1.807c0,0.104-0.088,0.189-0.191,0.189s-0.191-0.086-0.191-0.189V44.111z M46.915,6.621
		V2.802c0-0.373,0.297-0.671,0.683-0.671c0.373,0,0.67,0.298,0.67,0.671v3.764c0,1.43,0.738,2.188,1.947,2.188
		c1.199,0,1.938-0.715,1.938-2.134V2.802c0-0.373,0.297-0.671,0.682-0.671c0.374,0,0.671,0.298,0.671,0.671v3.752
		c0,2.299-1.298,3.455-3.312,3.455C48.191,10.009,46.915,8.853,46.915,6.621z M55.638,2.802c0-0.373,0.297-0.671,0.682-0.671
		c0.374,0,0.671,0.298,0.671,0.671v3.257l3.653-3.675c0.153-0.164,0.318-0.253,0.561-0.253c0.374,0,0.627,0.298,0.627,0.628
		c0,0.209-0.088,0.362-0.242,0.506l-2.398,2.311l2.597,3.223c0.11,0.143,0.187,0.275,0.187,0.484c0,0.374-0.297,0.66-0.682,0.66
		c-0.264,0-0.43-0.133-0.572-0.319l-2.475-3.157l-1.255,1.21v1.595c0,0.375-0.297,0.672-0.671,0.672
		c-0.385,0-0.682-0.297-0.682-0.672V2.802z M74.018,2.802c0-0.373,0.297-0.671,0.681-0.671c0.375,0,0.672,0.298,0.672,0.671v6.469
		c0,0.375-0.297,0.672-0.672,0.672c-0.384,0-0.681-0.297-0.681-0.672V2.802z M77.482,2.869c0-0.385,0.297-0.682,0.682-0.682h2.752
		c0.967,0,1.727,0.285,2.221,0.77c0.408,0.418,0.639,0.99,0.639,1.662V4.64c0,1.232-0.715,1.98-1.748,2.299L83.5,8.798
		c0.133,0.165,0.221,0.309,0.221,0.518c0,0.373-0.318,0.627-0.648,0.627c-0.309,0-0.506-0.143-0.66-0.352l-1.871-2.389h-1.705v2.068
		c0,0.375-0.297,0.672-0.672,0.672c-0.385,0-0.682-0.297-0.682-0.672V2.869z M80.816,6.003c0.969,0,1.584-0.506,1.584-1.287V4.695
		c0-0.825-0.594-1.275-1.596-1.275h-1.969v2.584H80.816z M85.49,9.206V2.869c0-0.385,0.297-0.682,0.682-0.682h4.479
		c0.33,0,0.605,0.274,0.605,0.604c0,0.341-0.275,0.605-0.605,0.605h-3.807v2.002h3.312c0.33,0,0.604,0.275,0.604,0.616
		c0,0.33-0.273,0.594-0.604,0.594h-3.312v2.068h3.861c0.33,0,0.605,0.275,0.605,0.605c0,0.341-0.275,0.605-0.605,0.605h-4.533
		C85.787,9.888,85.49,9.591,85.49,9.206z M93.137,2.802c0-0.373,0.297-0.671,0.682-0.671c0.373,0,0.672,0.298,0.672,0.671v5.854
		h3.486c0.342,0,0.617,0.275,0.617,0.615c0,0.342-0.275,0.617-0.617,0.617h-4.158c-0.385,0-0.682-0.297-0.682-0.683V2.802z
		 M100,9.007l2.859-6.381c0.154-0.341,0.43-0.55,0.814-0.55h0.066c0.385,0,0.648,0.209,0.803,0.55l2.861,6.381
		c0.055,0.1,0.076,0.198,0.076,0.286c0,0.363-0.275,0.649-0.637,0.649c-0.32,0-0.541-0.188-0.66-0.473l-0.629-1.441h-3.74
		l-0.648,1.484c-0.109,0.275-0.342,0.43-0.627,0.43c-0.352,0-0.627-0.275-0.627-0.627C99.912,9.216,99.945,9.118,100,9.007z
		 M105.039,6.83l-1.354-3.113l-1.354,3.113H105.039z M108.998,2.825c0-0.374,0.297-0.683,0.682-0.683h0.143
		c0.33,0,0.518,0.166,0.705,0.396l3.85,4.984V2.792c0-0.362,0.297-0.66,0.66-0.66c0.375,0,0.672,0.298,0.672,0.66v6.47
		c0,0.373-0.287,0.67-0.66,0.67h-0.055c-0.32,0-0.518-0.164-0.705-0.406l-3.961-5.127v4.885c0,0.363-0.297,0.66-0.66,0.66
		c-0.373,0-0.67-0.297-0.67-0.66V2.825z M117.523,2.869c0-0.385,0.297-0.682,0.682-0.682h2.189c2.42,0,4.092,1.66,4.092,3.828v0.021
		c0,2.168-1.672,3.852-4.092,3.852h-2.189c-0.385,0-0.682-0.297-0.682-0.683V2.869z M120.395,8.656c1.617,0,2.674-1.09,2.674-2.597
		V6.037c0-1.507-1.057-2.617-2.674-2.617h-1.518v5.236H120.395z"/>
 </g>
</svg>
